<svg width="26" height="26" viewBox="0 0 26 26" fill="none" xmlns="http://www.w3.org/2000/svg">
<path d="M21.4853 4.51472C26.1715 9.20101 26.1715 16.799 21.4853 21.4853C16.799 26.1715 9.20099 26.1715 4.51472 21.4853C-0.171573 16.799 -0.171573 9.20099 4.51472 4.51472C9.20101 -0.171573 16.799 -0.171573 21.4853 4.51472" stroke="#73767D" stroke-width="1.5" stroke-linecap="round" stroke-linejoin="round"/>
<path d="M15.6523 8.09854C17.117 9.56326 17.117 11.9381 15.6523 13.4028C14.1876 14.8675 11.8128 14.8675 10.3481 13.4028C8.88333 11.9381 8.88333 9.56326 10.3481 8.09854C11.8128 6.63382 14.1876 6.63382 15.6523 8.09854" stroke="#73767D" stroke-width="1.5" stroke-linecap="round" stroke-linejoin="round"/>
<path d="M20.6093 22.2773C18.696 20.2627 15.9973 19 13 19C10.0026 19 7.30396 20.2627 5.39062 22.2787" stroke="#73767D" stroke-width="1.5" stroke-linecap="round" stroke-linejoin="round"/>
</svg>
