<svg width="24" height="24" viewBox="0 0 24 24" fill="none" xmlns="http://www.w3.org/2000/svg">
<path d="M20 17.064C20 17.352 19.9359 17.648 19.7997 17.936C19.6635 18.224 19.4872 18.496 19.2549 18.752C18.8623 19.184 18.4296 19.496 17.9409 19.696C17.4602 19.896 16.9394 20 16.3786 20C15.5613 20 14.688 19.808 13.7666 19.416C12.8453 19.024 11.9239 18.496 11.0105 17.832C10.0891 17.16 9.21582 16.416 8.38257 15.592C7.55734 14.76 6.81222 13.888 6.14722 12.976C5.49024 12.064 4.96144 11.152 4.57687 10.248C4.19229 9.336 4 8.464 4 7.632C4 7.088 4.09614 6.568 4.28843 6.088C4.48072 5.6 4.78518 5.152 5.20981 4.752C5.72258 4.248 6.28343 4 6.87631 4C7.10065 4 7.32499 4.048 7.52529 4.144C7.7336 4.24 7.91788 4.384 8.06209 4.592L9.92088 7.208C10.0651 7.408 10.1693 7.592 10.2414 7.768C10.3135 7.936 10.3535 8.104 10.3535 8.256C10.3535 8.448 10.2974 8.64 10.1853 8.824C10.0811 9.008 9.92889 9.2 9.7366 9.392L9.12769 10.024C9.03956 10.112 8.9995 10.216 8.9995 10.344C8.9995 10.408 9.00751 10.464 9.02354 10.528C9.04757 10.592 9.07161 10.64 9.08763 10.688C9.23185 10.952 9.48022 11.296 9.83275 11.712C10.1933 12.128 10.5779 12.552 10.9945 12.976C11.4271 13.4 11.8438 13.792 12.2684 14.152C12.685 14.504 13.0295 14.744 13.302 14.888C13.342 14.904 13.3901 14.928 13.4462 14.952C13.5103 14.976 13.5744 14.984 13.6465 14.984C13.7827 14.984 13.8868 14.936 13.975 14.848L14.5839 14.248C14.7842 14.048 14.9765 13.896 15.1607 13.8C15.345 13.688 15.5293 13.632 15.7296 13.632C15.8818 13.632 16.0421 13.664 16.2183 13.736C16.3946 13.808 16.5789 13.912 16.7792 14.048L19.4311 15.928C19.6395 16.072 19.7837 16.24 19.8718 16.44C19.9519 16.64 20 16.84 20 17.064Z" stroke="#73767D" stroke-width="1.5" stroke-miterlimit="10"/>
</svg>
