<svg width="18" height="18" viewBox="0 0 18 18" fill="none" xmlns="http://www.w3.org/2000/svg">
<path d="M17 14.064C17 14.352 16.9359 14.648 16.7997 14.936C16.6635 15.224 16.4872 15.496 16.2549 15.752C15.8623 16.184 15.4296 16.496 14.9409 16.696C14.4602 16.896 13.9394 17 13.3786 17C12.5613 17 11.688 16.808 10.7666 16.416C9.84527 16.024 8.92389 15.496 8.01052 14.832C7.08913 14.16 6.21582 13.416 5.38257 12.592C4.55734 11.76 3.81222 10.888 3.14722 9.976C2.49024 9.064 1.96144 8.152 1.57687 7.248C1.19229 6.336 1 5.464 1 4.632C1 4.088 1.09614 3.568 1.28843 3.088C1.48072 2.6 1.78518 2.152 2.20981 1.752C2.72258 1.248 3.28343 1 3.87631 1C4.10065 1 4.32499 1.048 4.52529 1.144C4.7336 1.24 4.91788 1.384 5.06209 1.592L6.92088 4.208C7.0651 4.408 7.16925 4.592 7.24136 4.768C7.31347 4.936 7.35353 5.104 7.35353 5.256C7.35353 5.448 7.29745 5.64 7.18528 5.824C7.08112 6.008 6.92889 6.2 6.7366 6.392L6.12769 7.024C6.03956 7.112 5.9995 7.216 5.9995 7.344C5.9995 7.408 6.00751 7.464 6.02354 7.528C6.04757 7.592 6.07161 7.64 6.08763 7.688C6.23185 7.952 6.48022 8.296 6.83275 8.712C7.19329 9.128 7.57787 9.552 7.99449 9.976C8.42714 10.4 8.84377 10.792 9.2684 11.152C9.68503 11.504 10.0295 11.744 10.302 11.888C10.342 11.904 10.3901 11.928 10.4462 11.952C10.5103 11.976 10.5744 11.984 10.6465 11.984C10.7827 11.984 10.8868 11.936 10.975 11.848L11.5839 11.248C11.7842 11.048 11.9765 10.896 12.1607 10.8C12.345 10.688 12.5293 10.632 12.7296 10.632C12.8818 10.632 13.0421 10.664 13.2183 10.736C13.3946 10.808 13.5789 10.912 13.7792 11.048L16.4311 12.928C16.6395 13.072 16.7837 13.24 16.8718 13.44C16.9519 13.64 17 13.84 17 14.064Z" stroke="#73767D" stroke-width="1.5" stroke-miterlimit="10"/>
</svg>
