<svg width="24" height="24" viewBox="0 0 24 24" fill="none" xmlns="http://www.w3.org/2000/svg">
<path fill-rule="evenodd" clip-rule="evenodd" d="M7.57708 14.3839L6 7H18.9721C19.641 7 20.1311 7.62263 19.9687 8.26665L18.5838 13.7613C18.3732 14.5958 17.6581 15.2093 16.795 15.2949L9.79219 15.9899C8.74833 16.0928 7.79387 15.4009 7.57708 14.3839Z" stroke="#73767D" stroke-width="1.5" stroke-linecap="round" stroke-linejoin="round"/>
<path d="M6 7L5.1786 3H3" stroke="#73767D" stroke-width="1.5" stroke-linecap="round" stroke-linejoin="round"/>
<path d="M17.498 20.134C17.296 20.134 17.132 20.298 17.134 20.5C17.134 20.702 17.298 20.866 17.5 20.866C17.702 20.866 17.866 20.702 17.866 20.5C17.865 20.298 17.701 20.134 17.498 20.134" stroke="#73767D" stroke-width="1.5" stroke-linecap="round" stroke-linejoin="round"/>
<path d="M8.49851 20.1335C8.29651 20.1335 8.13251 20.2975 8.13451 20.4995C8.13251 20.7025 8.29751 20.8665 8.49951 20.8665C8.70151 20.8665 8.86551 20.7025 8.86551 20.5005C8.86551 20.2975 8.70151 20.1335 8.49851 20.1335" stroke="#73767D" stroke-width="1.5" stroke-linecap="round" stroke-linejoin="round"/>
</svg>
