<svg width="20" height="20" viewBox="0 0 20 20" fill="none" xmlns="http://www.w3.org/2000/svg">
<path fill-rule="evenodd" clip-rule="evenodd" d="M17 19H14C12.895 19 12 18.105 12 17V12C12 10.895 12.895 10 14 10H17C18.105 10 19 10.895 19 12V17C19 18.105 18.105 19 17 19Z" stroke="#8CC63F" stroke-width="1.5" stroke-linecap="round" stroke-linejoin="round"/>
<path fill-rule="evenodd" clip-rule="evenodd" d="M17 7H14C12.895 7 12 6.105 12 5V3C12 1.895 12.895 1 14 1H17C18.105 1 19 1.895 19 3V5C19 6.105 18.105 7 17 7Z" stroke="#8CC63F" stroke-width="1.5" stroke-linecap="round" stroke-linejoin="round"/>
<path fill-rule="evenodd" clip-rule="evenodd" d="M3 1H6C7.105 1 8 1.895 8 3V8C8 9.105 7.105 10 6 10H3C1.895 10 1 9.105 1 8V3C1 1.895 1.895 1 3 1Z" stroke="#8CC63F" stroke-width="1.5" stroke-linecap="round" stroke-linejoin="round"/>
<path fill-rule="evenodd" clip-rule="evenodd" d="M3 13H6C7.105 13 8 13.895 8 15V17C8 18.105 7.105 19 6 19H3C1.895 19 1 18.105 1 17V15C1 13.895 1.895 13 3 13Z" stroke="#8CC63F" stroke-width="1.5" stroke-linecap="round" stroke-linejoin="round"/>
</svg>
