<svg width="32" height="32" viewBox="0 0 32 32" fill="none" xmlns="http://www.w3.org/2000/svg">
<path d="M29.3333 18.6612H24.6667C24.2985 18.6612 24 18.3627 24 17.9945V13.3279H28.2667" stroke="#8CC63F" stroke-width="1.5" stroke-linecap="round" stroke-linejoin="round"/>
<path d="M24.7423 24.5857C25.3144 25.1577 25.4855 26.0179 25.176 26.7653C24.8665 27.5127 24.1372 28 23.3283 28C22.5194 28.0001 21.7901 27.5128 21.4805 26.7655C21.1709 26.0182 21.3419 25.1579 21.9139 24.5859L21.914 24.5857C22.695 23.8048 23.9613 23.8048 24.7423 24.5857V24.5857" stroke="#8CC63F" stroke-width="1.5" stroke-linecap="round" stroke-linejoin="round"/>
<path d="M10.0753 24.5857C10.6474 25.1576 10.8185 26.0179 10.509 26.7652C10.1995 27.5126 9.47022 27.9999 8.6613 28C7.85237 28 7.12307 27.5128 6.81347 26.7654C6.50387 26.0181 6.67494 25.1578 7.2469 24.5858V24.5858L7.2473 24.5854C8.02817 23.8045 9.29421 23.8045 10.0751 24.5854L10.0753 24.5856V24.5856" stroke="#8CC63F" stroke-width="1.5" stroke-linecap="round" stroke-linejoin="round"/>
<path d="M21.4415 25.3333H10.5469" stroke="#8CC63F" stroke-width="1.5" stroke-linecap="round" stroke-linejoin="round"/>
<path d="M25.2139 25.3334H28C28.7364 25.3334 29.3333 24.7364 29.3333 24V16.5084C29.3333 16.1693 29.2686 15.8334 29.1427 15.5185L27.3364 11.004C26.9314 9.99169 25.9509 9.32789 24.8605 9.32788H20" stroke="#8CC63F" stroke-width="1.5" stroke-linecap="round" stroke-linejoin="round"/>
<path d="M6.77578 25.3333H4.00033C3.26395 25.3333 2.66699 24.7364 2.66699 24V16" stroke="#8CC63F" stroke-width="1.5" stroke-linecap="round" stroke-linejoin="round"/>
<path d="M2.66699 19.9945H18.667C19.4034 19.9945 20.0003 19.3975 20.0003 18.6611V7.99447C20.0003 7.25809 19.4034 6.66113 18.667 6.66113H16.0003" stroke="#8CC63F" stroke-width="1.5" stroke-linecap="round" stroke-linejoin="round"/>
<path d="M2.66699 7.33337C2.66699 9.51807 5.05099 11.8518 6.41099 13.0059C6.94809 13.4426 7.71789 13.4426 8.25499 13.0059C9.61633 11.8518 12.0003 9.51807 12.0003 7.33337" stroke="#8CC63F" stroke-width="1.5" stroke-linecap="round" stroke-linejoin="round"/>
<path d="M7.33499 6.98663C7.52628 6.98737 7.68082 7.1429 7.68033 7.33419C7.67984 7.52547 7.5245 7.68021 7.33322 7.67997C7.14193 7.67972 6.987 7.52459 6.98699 7.3333C6.9865 7.24098 7.02305 7.15231 7.08846 7.08715C7.15387 7.022 7.24267 6.98579 7.33499 6.98663" stroke="#8CC63F" stroke-width="1.5" stroke-linecap="round" stroke-linejoin="round"/>
<path d="M2.66699 7.33329V7.33329C2.66699 4.75596 4.75633 2.66663 7.33366 2.66663V2.66663C9.91099 2.66663 12.0003 4.75596 12.0003 7.33329V7.33329" stroke="#8CC63F" stroke-width="1.5" stroke-linecap="round" stroke-linejoin="round"/>
</svg>
