<svg width="32" height="32" viewBox="0 0 32 32" fill="none" xmlns="http://www.w3.org/2000/svg">
<path d="M15.9918 7.88818L15.4226 8.37658C15.5651 8.54263 15.773 8.63818 15.9918 8.63818C16.2106 8.63818 16.4185 8.54263 16.561 8.37658L15.9918 7.88818ZM5.51704 16.7695L6.10853 16.3084L5.51704 16.7695ZM26.4665 16.7695L25.875 16.3084L26.4665 16.7695ZM15.3665 26.3157L15.8629 25.7535L15.3665 26.3157ZM15.8203 26.6419L15.6065 27.3608L15.8203 26.6419ZM16.617 26.3157L16.1207 25.7535L16.617 26.3157ZM16.1633 26.6419L16.3771 27.3608L16.1633 26.6419ZM16.561 7.39978C13.9408 4.34622 9.47328 3.45573 6.09933 6.32939L7.07194 7.47133C9.71011 5.22434 13.2444 5.83809 15.4226 8.37658L16.561 7.39978ZM6.09933 6.32939C2.79121 9.14697 2.31501 13.882 4.92554 17.2306L6.10853 16.3084C3.99771 13.6008 4.36793 9.77438 7.07194 7.47133L6.09933 6.32939ZM27.058 17.2306C29.6619 13.8906 29.2541 9.12126 25.8764 6.32282L24.9194 7.47789C27.6573 9.74623 27.9925 13.5922 25.875 16.3084L27.058 17.2306ZM25.8764 6.32282C22.4585 3.49104 18.0485 4.33965 15.4226 7.39978L16.561 8.37658C18.7336 5.84467 22.2219 5.2429 24.9194 7.47789L25.8764 6.32282ZM4.92554 17.2306C5.94805 18.5422 7.96625 20.5372 9.93382 22.3885C11.9158 24.2533 13.8941 26.0163 14.8702 26.878L15.8629 25.7535C14.8921 24.8965 12.9271 23.1452 10.9617 21.296C8.98191 19.4333 7.04877 17.5144 6.10853 16.3084L4.92554 17.2306ZM17.1134 26.878C18.0894 26.0163 20.0678 24.2533 22.0497 22.3885C24.0173 20.5372 26.0355 18.5422 27.058 17.2306L25.875 16.3084C24.9348 17.5144 23.0017 19.4333 21.0219 21.296C19.0565 23.1452 17.0915 24.8965 16.1207 25.7535L17.1134 26.878ZM14.8702 26.878C14.9702 26.9663 15.0775 27.0618 15.1772 27.1366C15.2857 27.218 15.4256 27.307 15.6065 27.3608L16.034 25.923C16.0879 25.9391 16.1098 25.9611 16.0777 25.9369C16.0608 25.9243 16.0365 25.9047 15.999 25.8726C15.9615 25.8405 15.9186 25.8026 15.8629 25.7535L14.8702 26.878ZM16.1207 25.7535C16.065 25.8026 16.022 25.8405 15.9845 25.8726C15.9471 25.9047 15.9227 25.9243 15.9059 25.9369C15.8737 25.9611 15.8956 25.9391 15.9495 25.923L16.3771 27.3608C16.558 27.307 16.6979 27.218 16.8064 27.1366C16.906 27.0618 17.0133 26.9663 17.1134 26.878L16.1207 25.7535ZM15.6065 27.3608C15.8568 27.4353 16.1267 27.4353 16.3771 27.3608L15.9495 25.923C15.9653 25.9183 15.9794 25.9166 15.9918 25.9166C16.0042 25.9166 16.0183 25.9183 16.034 25.923L15.6065 27.3608Z" fill="#8CC63F"/>
</svg>
