<svg width="20" height="18" viewBox="0 0 20 18" fill="none" xmlns="http://www.w3.org/2000/svg">
<path d="M9.99384 2.91615L9.42466 3.40455C9.56714 3.5706 9.77503 3.66615 9.99384 3.66615C10.2126 3.66615 10.4205 3.5706 10.563 3.40455L9.99384 2.91615ZM2.13778 9.57714L2.72927 9.11602L2.13778 9.57714ZM17.8499 9.57714L17.2584 9.11602L17.8499 9.57714ZM9.52489 16.7368L10.0212 16.1746L9.52489 16.7368ZM9.86519 16.9815L9.65141 17.7003L9.86519 16.9815ZM10.4628 16.7368L9.96642 16.1746L10.4628 16.7368ZM10.1225 16.9815L10.3363 17.7003L10.1225 16.9815ZM10.563 2.42775C8.54261 0.0731984 5.07535 -0.629266 2.45292 1.60431L3.42553 2.74625C5.31219 1.13935 7.84623 1.56507 9.42466 3.40455L10.563 2.42775ZM2.45292 1.60431C-0.103679 3.78182 -0.47408 7.44669 1.54628 10.0383L2.72927 9.11602C1.20862 7.16544 1.47304 4.40923 3.42553 2.74625L2.45292 1.60431ZM18.4414 10.0383C20.4551 7.45523 20.1401 3.76284 17.5269 1.59775L16.5699 2.75281C18.5433 4.38781 18.7857 7.15691 17.2584 9.11602L18.4414 10.0383ZM17.5269 1.59775C14.8735 -0.600689 11.4507 0.0666264 9.42466 2.42775L10.563 3.40455C12.1358 1.57164 14.6368 1.15117 16.5699 2.75281L17.5269 1.59775ZM1.54628 10.0383C2.32345 11.0352 3.84773 12.5409 5.32188 13.9279C6.81043 15.3285 8.29586 16.6523 9.02853 17.2991L10.0212 16.1746C9.29383 15.5324 7.82173 14.2204 6.34976 12.8355C4.86339 11.437 3.42417 10.0074 2.72927 9.11602L1.54628 10.0383ZM10.9591 17.2991C11.6918 16.6523 13.1772 15.3285 14.6658 13.9279C16.1399 12.5409 17.6642 11.0352 18.4414 10.0383L17.2584 9.11602C16.5635 10.0074 15.1243 11.437 13.6379 12.8355C12.1659 14.2204 10.6938 15.5324 9.96642 16.1746L10.9591 17.2991ZM9.02853 17.2991C9.10138 17.3634 9.18826 17.4408 9.27033 17.5024C9.36125 17.5707 9.48637 17.6513 9.65141 17.7003L10.079 16.2626C10.1487 16.2833 10.1854 16.3137 10.1708 16.3028C10.1628 16.2967 10.1479 16.2849 10.1212 16.262C10.0944 16.2391 10.0633 16.2117 10.0212 16.1746L9.02853 17.2991ZM9.96642 16.1746C9.92433 16.2117 9.8933 16.2391 9.86648 16.262C9.83974 16.2849 9.82491 16.2967 9.81686 16.3028C9.80229 16.3137 9.83893 16.2833 9.9087 16.2626L10.3363 17.7003C10.5013 17.6513 10.6264 17.5707 10.7173 17.5024C10.7994 17.4408 10.8863 17.3634 10.9591 17.2991L9.96642 16.1746ZM9.65141 17.7003C9.87406 17.7666 10.1136 17.7666 10.3363 17.7003L9.9087 16.2626C9.96505 16.2458 10.0226 16.2458 10.079 16.2626L9.65141 17.7003Z" fill="#73767D"/>
</svg>
