<svg width="24" height="24" viewBox="0 0 24 24" fill="none" xmlns="http://www.w3.org/2000/svg">
<path d="M11.9938 5.91615L11.4247 6.40455C11.5671 6.5706 11.775 6.66615 11.9938 6.66615C12.2126 6.66615 12.4205 6.5706 12.563 6.40455L11.9938 5.91615ZM4.13778 12.5771L4.72927 12.116L4.13778 12.5771ZM19.8499 12.5771L19.2584 12.116L19.8499 12.5771ZM11.5249 19.7368L12.0212 19.1746L11.5249 19.7368ZM11.8652 19.9815L11.6514 20.7003L11.8652 19.9815ZM12.4628 19.7368L11.9664 19.1746L12.4628 19.7368ZM12.1225 19.9815L12.3363 20.7003L12.1225 19.9815ZM12.563 5.42775C10.5426 3.0732 7.07535 2.37073 4.45292 4.60431L5.42553 5.74625C7.31219 4.13935 9.84623 4.56507 11.4247 6.40455L12.563 5.42775ZM4.45292 4.60431C1.89632 6.78182 1.52592 10.4467 3.54628 13.0383L4.72927 12.116C3.20862 10.1654 3.47304 7.40923 5.42553 5.74625L4.45292 4.60431ZM20.4414 13.0383C22.4551 10.4552 22.1401 6.76284 19.5269 4.59775L18.5699 5.75281C20.5433 7.38781 20.7857 10.1569 19.2584 12.116L20.4414 13.0383ZM19.5269 4.59775C16.8735 2.39931 13.4507 3.06663 11.4247 5.42775L12.563 6.40455C14.1358 4.57164 16.6368 4.15117 18.5699 5.75281L19.5269 4.59775ZM3.54628 13.0383C4.32345 14.0352 5.84773 15.5409 7.32188 16.9279C8.81043 18.3285 10.2959 19.6523 11.0285 20.2991L12.0212 19.1746C11.2938 18.5324 9.82173 17.2204 8.34976 15.8355C6.86339 14.437 5.42417 13.0074 4.72927 12.116L3.54628 13.0383ZM12.9591 20.2991C13.6918 19.6523 15.1772 18.3285 16.6658 16.9279C18.1399 15.5409 19.6642 14.0352 20.4414 13.0383L19.2584 12.116C18.5635 13.0074 17.1243 14.437 15.6379 15.8355C14.1659 17.2204 12.6938 18.5324 11.9664 19.1746L12.9591 20.2991ZM11.0285 20.2991C11.1014 20.3634 11.1883 20.4408 11.2703 20.5024C11.3613 20.5707 11.4864 20.6513 11.6514 20.7003L12.079 19.2626C12.1487 19.2833 12.1854 19.3137 12.1708 19.3028C12.1628 19.2967 12.1479 19.2849 12.1212 19.262C12.0944 19.2391 12.0633 19.2117 12.0212 19.1746L11.0285 20.2991ZM11.9664 19.1746C11.9243 19.2117 11.8933 19.2391 11.8665 19.262C11.8397 19.2849 11.8249 19.2967 11.8169 19.3028C11.8023 19.3137 11.8389 19.2833 11.9087 19.2626L12.3363 20.7003C12.5013 20.6513 12.6264 20.5707 12.7173 20.5024C12.7994 20.4408 12.8863 20.3634 12.9591 20.2991L11.9664 19.1746ZM11.6514 20.7003C11.8741 20.7666 12.1136 20.7666 12.3363 20.7003L11.9087 19.2626C11.965 19.2458 12.0226 19.2458 12.079 19.2626L11.6514 20.7003Z" fill="#73767D"/>
</svg>
