<svg width="64" height="64" viewBox="0 0 64 64" fill="none" xmlns="http://www.w3.org/2000/svg">
<path fill-rule="evenodd" clip-rule="evenodd" d="M18.5173 50.6668H13.4826C11.928 50.6668 10.6666 49.4055 10.6666 47.8508V28.1495C10.6666 26.5948 11.928 25.3335 13.4826 25.3335H18.5173C20.072 25.3335 21.3333 26.5948 21.3333 28.1495V47.8508C21.3333 49.4055 20.072 50.6668 18.5173 50.6668V50.6668Z" stroke="white" stroke-width="1.5" stroke-linecap="round" stroke-linejoin="round"/>
<path d="M21.3333 28.1922L31.064 15.5228C32.8746 13.1628 36.4106 13.1042 38.3013 15.4002V15.4002C39.008 16.2562 39.392 17.3335 39.392 18.4428V27.1655H47.648C49.2506 27.1655 50.7466 27.9655 51.6373 29.2962L52.5146 30.6055C53.3013 31.7815 53.5306 33.2455 53.1386 34.6028L49.5146 47.1948C48.9226 49.2508 47.0426 50.6668 44.904 50.6668H28.1333C26.8 50.6668 25.5253 50.1122 24.6186 49.1362L21.3333 45.6002" stroke="white" stroke-width="1.5" stroke-linecap="round" stroke-linejoin="round"/>
</svg>
