<svg width="20" height="20" viewBox="0 0 20 20" fill="none" xmlns="http://www.w3.org/2000/svg">
<path d="M16.364 3.63604C19.8787 7.15076 19.8787 12.8492 16.364 16.3639C12.8493 19.8787 7.1508 19.8787 3.6361 16.3639C0.121381 12.8492 0.121381 7.15074 3.6361 3.63604C7.15082 0.12132 12.8493 0.12132 16.364 3.63604" stroke="#73767D" stroke-width="1.5" stroke-linecap="round" stroke-linejoin="round"/>
<path d="M11.9891 6.3239C13.0876 7.42244 13.0876 9.20354 11.9891 10.3021C10.8906 11.4006 9.10946 11.4006 8.01092 10.3021C6.91238 9.20354 6.91238 7.42244 8.01092 6.3239C9.10946 5.22537 10.8906 5.22537 11.9891 6.3239" stroke="#73767D" stroke-width="1.5" stroke-linecap="round" stroke-linejoin="round"/>
<path d="M15.707 16.958C14.272 15.447 12.248 14.5 10 14.5C7.752 14.5 5.728 15.447 4.293 16.959" stroke="#73767D" stroke-width="1.5" stroke-linecap="round" stroke-linejoin="round"/>
</svg>
