<svg width="24" height="24" viewBox="0 0 24 24" fill="none" xmlns="http://www.w3.org/2000/svg">
<path d="M6.00002 10L3.82843 7.82843C2.72386 6.72386 2.72386 4.933 3.82843 3.82843V3.82843C4.35886 3.298 5.07828 3 5.82843 3C6.57857 3 7.29799 3.298 7.82843 3.82843L10 6.00001" stroke="#73767D" stroke-width="1.5" stroke-linecap="round" stroke-linejoin="round"/>
<path d="M5 9L9 5" stroke="#73767D" stroke-width="1.5" stroke-linecap="round" stroke-linejoin="round"/>
<path d="M18 14L19.7089 15.7089C19.9881 15.9881 20.1784 16.3437 20.2559 16.7309L20.99 20.4017C21.0228 20.5656 20.9715 20.7351 20.8533 20.8533C20.7351 20.9715 20.5656 21.0228 20.4016 20.99L16.7309 20.2559C16.3437 20.1784 15.9881 19.9881 15.7089 19.7089L14 18" stroke="#73767D" stroke-width="1.5" stroke-linecap="round" stroke-linejoin="round"/>
<path fill-rule="evenodd" clip-rule="evenodd" d="M17.76 10.76L7.82002 20.7C7.41945 21.1 6.77058 21.1 6.37002 20.7L3.30002 17.63C2.89999 17.2295 2.89999 16.5806 3.30002 16.18L16.18 3.30002C16.5806 2.89999 17.2295 2.89999 17.63 3.30002L20.7 6.37002C21.1 6.77058 21.1 7.41945 20.7 7.82002L17.76 10.76Z" stroke="#73767D" stroke-width="1.5" stroke-linecap="round" stroke-linejoin="round"/>
<path d="M15.1211 6.63606L13.9824 5.49738" stroke="#73767D" stroke-width="1.5" stroke-linecap="round" stroke-linejoin="round"/>
<path d="M12.793 9.96449L11.1543 8.32581" stroke="#73767D" stroke-width="1.5" stroke-linecap="round" stroke-linejoin="round"/>
<path d="M9.46436 12.2929L8.32568 11.1542" stroke="#73767D" stroke-width="1.5" stroke-linecap="round" stroke-linejoin="round"/>
<path d="M7.13624 15.6213L5.49756 13.9827" stroke="#73767D" stroke-width="1.5" stroke-linecap="round" stroke-linejoin="round"/>
</svg>
