<svg width="24" height="24" viewBox="0 0 24 24" fill="none" xmlns="http://www.w3.org/2000/svg">
<path fill-rule="evenodd" clip-rule="evenodd" d="M12.4255 2.94799L15.1475 2.06699C15.7915 1.85799 16.4915 2.14899 16.7995 2.75099L18.1005 5.29899C18.2325 5.55699 18.4425 5.76799 18.7015 5.89999L21.2175 7.18499C21.8385 7.50199 22.1375 8.22399 21.9225 8.88799L21.0525 11.576C20.9635 11.852 20.9635 12.149 21.0525 12.425L21.9335 15.147C22.1425 15.791 21.8515 16.491 21.2495 16.799L18.7015 18.1C18.4435 18.232 18.2325 18.442 18.1005 18.701L16.7985 21.249C16.4905 21.852 15.7905 22.142 15.1465 21.933L12.4245 21.052C12.1485 20.963 11.8515 20.963 11.5755 21.052L8.85347 21.933C8.20947 22.142 7.50947 21.851 7.20147 21.249L5.90047 18.701C5.76847 18.443 5.55847 18.232 5.29947 18.1L2.75147 16.798C2.14847 16.49 1.85847 15.79 2.06747 15.146L2.94847 12.424C3.03747 12.148 3.03747 11.851 2.94847 11.575L2.06747 8.85399C1.85947 8.20999 2.14947 7.50899 2.75247 7.20099L5.29947 5.89999C5.55847 5.76799 5.76847 5.55799 5.90047 5.29899L7.20247 2.75099C7.50947 2.14899 8.21047 1.85899 8.85447 2.06699L11.5765 2.94799C11.8515 3.03799 12.1495 3.03799 12.4255 2.94799V2.94799Z" stroke="#CD1A27" stroke-width="1.5" stroke-linecap="round" stroke-linejoin="round"/>
<path fill-rule="evenodd" clip-rule="evenodd" d="M12.4255 2.94799L15.1475 2.06699C15.7915 1.85799 16.4915 2.14899 16.7995 2.75099L18.1005 5.29899C18.2325 5.55699 18.4425 5.76799 18.7015 5.89999L21.2175 7.18499C21.8385 7.50199 22.1375 8.22399 21.9225 8.88799L21.0525 11.576C20.9635 11.852 20.9635 12.149 21.0525 12.425L21.9335 15.147C22.1425 15.791 21.8515 16.491 21.2495 16.799L18.7015 18.1C18.4435 18.232 18.2325 18.442 18.1005 18.701L16.7985 21.249C16.4905 21.852 15.7905 22.142 15.1465 21.933L12.4245 21.052C12.1485 20.963 11.8515 20.963 11.5755 21.052L8.85347 21.933C8.20947 22.142 7.50947 21.851 7.20147 21.249L5.90047 18.701C5.76847 18.443 5.55847 18.232 5.29947 18.1L2.75147 16.798C2.14847 16.49 1.85847 15.79 2.06747 15.146L2.94847 12.424C3.03747 12.148 3.03747 11.851 2.94847 11.575L2.06747 8.85399C1.85947 8.20999 2.14947 7.50899 2.75247 7.20099L5.29947 5.89999C5.55847 5.76799 5.76847 5.55799 5.90047 5.29899L7.20247 2.75099C7.50947 2.14899 8.21047 1.85899 8.85447 2.06699L11.5765 2.94799C11.8515 3.03799 12.1495 3.03799 12.4255 2.94799V2.94799Z" stroke="#D32E3A" stroke-width="1.5" stroke-linecap="round" stroke-linejoin="round"/>
<path d="M9 15L15 9" stroke="#CD1A27" stroke-width="1.5" stroke-linecap="round" stroke-linejoin="round"/>
<path d="M9 15L15 9" stroke="#D32E3A" stroke-width="1.5" stroke-linecap="round" stroke-linejoin="round"/>
<path d="M9.249 9C9.111 9 8.999 9.112 9 9.25C9 9.388 9.112 9.5 9.25 9.5C9.388 9.5 9.5 9.388 9.5 9.25C9.5 9.112 9.388 9 9.249 9" stroke="#CD1A27" stroke-width="1.5" stroke-linecap="round" stroke-linejoin="round"/>
<path d="M9.249 9C9.111 9 8.999 9.112 9 9.25C9 9.388 9.112 9.5 9.25 9.5C9.388 9.5 9.5 9.388 9.5 9.25C9.5 9.112 9.388 9 9.249 9" stroke="#D32E3A" stroke-width="1.5" stroke-linecap="round" stroke-linejoin="round"/>
<path d="M14.749 14.5C14.611 14.5 14.499 14.612 14.5 14.75C14.5 14.888 14.612 15 14.75 15C14.888 15 15 14.888 15 14.75C15 14.612 14.888 14.5 14.749 14.5" stroke="#CD1A27" stroke-width="1.5" stroke-linecap="round" stroke-linejoin="round"/>
<path d="M14.749 14.5C14.611 14.5 14.499 14.612 14.5 14.75C14.5 14.888 14.612 15 14.75 15C14.888 15 15 14.888 15 14.75C15 14.612 14.888 14.5 14.749 14.5" stroke="#D32E3A" stroke-width="1.5" stroke-linecap="round" stroke-linejoin="round"/>
</svg>
