<svg width="32" height="32" viewBox="0 0 32 32" fill="none" xmlns="http://www.w3.org/2000/svg">
<path d="M10 7.15863V4.66663C10 3.56206 10.8954 2.66663 12 2.66663V2.66663C13.1046 2.66663 14 3.56206 14 4.66663V7.15996" stroke="#8CC63F" stroke-width="1.5" stroke-linecap="round" stroke-linejoin="round"/>
<path d="M13.1867 14.4853L17.3053 28H20V21.3333L15.9963 9.53987C15.4131 7.82211 13.8006 6.66663 11.9865 6.66663V6.66663C10.1693 6.66662 8.55465 7.82612 7.974 9.54809L4 21.3333V28H6.66667L10.7573 14.4853" stroke="#8CC63F" stroke-width="1.5" stroke-linecap="round" stroke-linejoin="round"/>
<path d="M20 9.33333V5.33333C20 4.59695 20.597 4 21.3333 4H26.6667C27.403 4 28 4.59695 28 5.33333V26.6667C28 27.403 27.403 28 26.6667 28H24" stroke="#8CC63F" stroke-width="1.5" stroke-linecap="round" stroke-linejoin="round"/>
<path d="M27.9997 7.82292H25.333" stroke="#8CC63F" stroke-width="1.5" stroke-linecap="round" stroke-linejoin="round"/>
<path d="M27.9997 13.1562H25.333" stroke="#8CC63F" stroke-width="1.5" stroke-linecap="round" stroke-linejoin="round"/>
<path d="M27.9997 18.4895H25.333" stroke="#8CC63F" stroke-width="1.5" stroke-linecap="round" stroke-linejoin="round"/>
<path d="M27.9997 23.8229H25.333" stroke="#8CC63F" stroke-width="1.5" stroke-linecap="round" stroke-linejoin="round"/>
<circle cx="12" cy="10.6666" r="4" stroke="#8CC63F" stroke-width="1.5" stroke-linecap="round" stroke-linejoin="round"/>
<path d="M12.1337 10.6667C12.1337 10.7035 12.1038 10.7333 12.067 10.7333C12.0302 10.7333 12.0004 10.7035 12.0004 10.6667C12.0004 10.6299 12.0302 10.6 12.067 10.6C12.0847 10.6 12.1017 10.607 12.1142 10.6195C12.1267 10.632 12.1337 10.649 12.1337 10.6667" stroke="#8CC63F" stroke-width="1.5" stroke-linecap="round" stroke-linejoin="round"/>
</svg>
