<svg width="24" height="13" viewBox="0 0 24 13" fill="none" xmlns="http://www.w3.org/2000/svg">
<path fill-rule="evenodd" clip-rule="evenodd" d="M23.4493 0.880274C23.6161 0.372855 23.4493 0 22.6553 0H20.0297C19.3621 0 19.0543 0.322091 18.8874 0.677265C18.8874 0.677265 17.5521 3.64563 15.6606 5.57378C15.0487 6.13192 14.7705 6.30951 14.4367 6.30951C14.2698 6.30951 14.0282 6.13192 14.0282 5.62455V0.880277C14.0282 0.271372 13.8345 0 13.2781 0H9.15213C8.73494 0 8.48403 0.282607 8.48403 0.550443C8.48403 1.12767 9.42974 1.26079 9.52722 2.88453V6.41103C9.52722 7.18421 9.37413 7.32439 9.04032 7.32439C8.15023 7.32439 5.98507 4.34276 4.70093 0.930995C4.44927 0.267869 4.19686 0 3.52583 0H0.900217C0.150043 0 0 0.322091 0 0.677265C0 1.31155 0.89014 4.45751 4.14464 8.61826C6.31429 11.4597 9.37118 13 12.1528 13C13.8218 13 14.0283 12.6579 14.0283 12.0686V9.92105C14.0283 9.23684 14.1864 9.10029 14.7149 9.10029C15.1043 9.10029 15.7719 9.27788 17.3296 10.6479C19.1099 12.2716 19.4034 13 20.4047 13H23.0304C23.7805 13 24.1556 12.6579 23.9392 11.9828C23.7024 11.3099 22.8525 10.3337 21.7247 9.17639C21.1127 8.51677 20.1947 7.80643 19.9165 7.45117C19.5271 6.99456 19.6384 6.79155 19.9165 6.38565C19.9165 6.38565 23.1155 2.27562 23.4493 0.880274Z" fill="white"/>
</svg>
