<svg width="24" height="26" viewBox="0 0 24 26" fill="none" xmlns="http://www.w3.org/2000/svg">
<path fill-rule="evenodd" clip-rule="evenodd" d="M12.0502 24.8936H12.0453C10.0453 24.8929 8.08018 24.3911 6.33478 23.439L0 25.1008L1.69529 18.9085C0.649554 17.0962 0.099291 15.0405 0.100188 12.9344C0.102809 6.34576 5.4635 0.985352 12.0501 0.985352C15.2468 0.986731 18.2472 2.2312 20.5033 4.48997C22.7594 6.74862 24.0013 9.75092 24 12.9438C23.9974 19.531 18.6388 24.8909 12.0502 24.8936ZM6.62814 21.2759L6.99083 21.4912C8.51578 22.3961 10.2638 22.8749 12.0461 22.8756H12.0501C17.5244 22.8756 21.98 18.42 21.9822 12.9434C21.9832 10.2894 20.9511 7.79404 19.0759 5.91664C17.2007 4.03924 14.7069 3.00483 12.054 3.00391C6.57544 3.00391 2.11982 7.45912 2.11765 12.9353C2.11688 14.812 2.64198 16.6397 3.63621 18.2211L3.87237 18.5969L2.869 22.262L6.62814 21.2759ZM17.6627 15.5177C17.8709 15.6183 18.0116 15.6863 18.0716 15.7865C18.1462 15.911 18.1462 16.5089 17.8975 17.2064C17.6486 17.9039 16.4558 18.5404 15.8821 18.6261C15.3677 18.703 14.7167 18.7351 14.0014 18.5078C13.5678 18.3702 13.0116 18.1865 12.2993 17.8788C9.50006 16.6702 7.60839 13.9572 7.25087 13.4444C7.22583 13.4085 7.20831 13.3834 7.19854 13.3703L7.19613 13.3671C7.03811 13.1563 5.97934 11.7436 5.97934 10.2816C5.97934 8.90619 6.65494 8.18529 6.96592 7.85346C6.98722 7.83073 7.00682 7.80982 7.02437 7.79066C7.29805 7.49172 7.62155 7.41699 7.82059 7.41699C8.01962 7.41699 8.21889 7.41883 8.39286 7.42757C8.41433 7.42865 8.43665 7.42852 8.45974 7.42838C8.63374 7.42736 8.85066 7.42609 9.06466 7.94012C9.14699 8.13793 9.26744 8.43119 9.39449 8.74049C9.65142 9.36601 9.93531 10.0571 9.98525 10.1572C10.0599 10.3066 10.1097 10.4809 10.0101 10.6803C9.9952 10.7102 9.98139 10.7384 9.96819 10.7653C9.89343 10.9179 9.83844 11.0302 9.71157 11.1783C9.66168 11.2366 9.61012 11.2994 9.55856 11.3622C9.45583 11.4873 9.35312 11.6124 9.26368 11.7015C9.1142 11.8504 8.9586 12.0119 9.13277 12.3108C9.30694 12.6098 9.90619 13.5875 10.7938 14.3793C11.748 15.2303 12.5773 15.5901 12.9977 15.7724C13.0797 15.808 13.1462 15.8368 13.195 15.8613C13.4935 16.0108 13.6677 15.9857 13.8419 15.7865C14.016 15.5873 14.5883 14.9146 14.7873 14.6158C14.9863 14.3169 15.1854 14.3667 15.4591 14.4663C15.7328 14.5661 17.2008 15.2883 17.4994 15.4378C17.5577 15.4669 17.6122 15.4933 17.6627 15.5177Z" fill="#8CC63F"/>
</svg>
